<?xml version="1.0" encoding="UTF-8" standalone="no"?>
<!-- Generator: Adobe Illustrator 9.0, SVG Export Plug-In  -->

<svg
   xmlns:dc="http://purl.org/dc/elements/1.1/"
   xmlns:cc="http://creativecommons.org/ns#"
   xmlns:rdf="http://www.w3.org/1999/02/22-rdf-syntax-ns#"
   xmlns:svg="http://www.w3.org/2000/svg"
   xmlns="http://www.w3.org/2000/svg"
   xmlns:xlink="http://www.w3.org/1999/xlink"
   xmlns:sodipodi="http://sodipodi.sourceforge.net/DTD/sodipodi-0.dtd"
   xmlns:inkscape="http://www.inkscape.org/namespaces/inkscape"
   sodipodi:docname="application-certificate.svg"
   inkscape:version="0.48.4 r9939"
   sodipodi:version="0.32"
   id="svg5105"
   xml:space="preserve"
   viewBox="0 0 48 48"
   height="48.000000px"
   width="48.000000px"
   inkscape:output_extension="org.inkscape.output.svg.inkscape"
   version="1.1"><metadata
     id="metadata5189"><rdf:RDF><cc:Work
         rdf:about=""><dc:format>image/svg+xml</dc:format><dc:type
           rdf:resource="http://purl.org/dc/dcmitype/StillImage" /><dc:title></dc:title><dc:creator><cc:Agent><dc:title>Jakub Steiner</dc:title></cc:Agent></dc:creator><dc:subject><rdf:Bag><rdf:li>certificate</rdf:li></rdf:Bag></dc:subject><cc:license
           rdf:resource="http://creativecommons.org/licenses/publicdomain/" /></cc:Work><cc:License
         rdf:about="http://creativecommons.org/licenses/publicdomain/"><cc:permits
           rdf:resource="http://creativecommons.org/ns#Reproduction" /><cc:permits
           rdf:resource="http://creativecommons.org/ns#Distribution" /><cc:permits
           rdf:resource="http://creativecommons.org/ns#DerivativeWorks" /></cc:License></rdf:RDF></metadata><defs
     id="defs5187"><inkscape:perspective
       sodipodi:type="inkscape:persp3d"
       inkscape:vp_x="0 : 24 : 1"
       inkscape:vp_y="0 : 1000 : 0"
       inkscape:vp_z="48 : 24 : 1"
       inkscape:persp3d-origin="24 : 16 : 1"
       id="perspective54" /><linearGradient
       id="linearGradient6684"><stop
         id="stop6686"
         offset="0.0000000"
         style="stop-color:#d5dbff;stop-opacity:1.0000000;" /><stop
         id="stop6688"
         offset="1"
         style="stop-color:#6579ff;stop-opacity:0;" /></linearGradient><linearGradient
       id="linearGradient6665"><stop
         style="stop-color:#000000;stop-opacity:1.0000000;"
         offset="0.0000000"
         id="stop6667" /><stop
         style="stop-color:#000000;stop-opacity:0.0000000;"
         offset="1.0000000"
         id="stop6669" /></linearGradient><linearGradient
       id="linearGradient6625"><stop
         id="stop6627"
         offset="0.0000000"
         style="stop-color:#1d2349;stop-opacity:1.0000000;" /><stop
         style="stop-color:#4c5279;stop-opacity:1.0000000;"
         offset="0.35315102"
         id="stop6637" /><stop
         style="stop-color:#b3bdff;stop-opacity:1.0000000;"
         offset="0.46551725"
         id="stop6633" /><stop
         id="stop6635"
         offset="0.64982164"
         style="stop-color:#727cbe;stop-opacity:1.0000000;" /><stop
         id="stop6629"
         offset="1.0000000"
         style="stop-color:#323c7e;stop-opacity:1.0000000;" /></linearGradient><linearGradient
       id="linearGradient6617"><stop
         id="stop6619"
         offset="0.0000000"
         style="stop-color:#ffffff;stop-opacity:0.24742268;" /><stop
         id="stop6621"
         offset="1"
         style="stop-color:#ffffff;stop-opacity:0;" /></linearGradient><linearGradient
       id="linearGradient6604"><stop
         id="stop6606"
         offset="0.0000000"
         style="stop-color:#ffa196;stop-opacity:1.0000000;" /><stop
         id="stop6608"
         offset="1"
         style="stop-color:#ff1f06;stop-opacity:0;" /></linearGradient><radialGradient
       r="13.2807"
       fy="20.9712"
       fx="28.7891"
       cy="20.9712"
       cx="28.7891"
       gradientUnits="userSpaceOnUse"
       id="radialGradient5199"
       xlink:href="#aigrd1"
       inkscape:collect="always" /><radialGradient
       r="14.6944"
       fy="13.5444"
       fx="19.292"
       cy="13.5444"
       cx="19.292"
       gradientUnits="userSpaceOnUse"
       id="radialGradient5201"
       xlink:href="#aigrd2"
       inkscape:collect="always" /><linearGradient
       y2="16.7231"
       x2="23.412"
       y1="11.5991"
       x1="18.229"
       gradientUnits="userSpaceOnUse"
       id="linearGradient5203"
       xlink:href="#aigrd3"
       inkscape:collect="always" /><radialGradient
       gradientUnits="userSpaceOnUse"
       fy="20.971201"
       fx="28.789101"
       r="13.280700"
       cy="20.971201"
       cx="28.789101"
       id="aigrd1"><stop
         id="stop5115"
         style="stop-color:#E41E08"
         offset="0" /><stop
         id="stop5117"
         style="stop-color:#901505"
         offset="1" /></radialGradient><radialGradient
       gradientUnits="userSpaceOnUse"
       fy="13.544400"
       fx="19.292000"
       r="14.694400"
       cy="13.544400"
       cx="19.292000"
       id="aigrd2"><stop
         id="stop5122"
         style="stop-color:#E41E08"
         offset="0" /><stop
         id="stop5124"
         style="stop-color:#901505"
         offset="1" /></radialGradient><linearGradient
       y2="16.723101"
       x2="23.412001"
       y1="11.599100"
       x1="18.229000"
       gradientUnits="userSpaceOnUse"
       id="aigrd3"><stop
         id="stop5137"
         style="stop-color:#FFFFFF"
         offset="0" /><stop
         id="stop5139"
         style="stop-color:#901505"
         offset="1" /></linearGradient><linearGradient
       gradientTransform="matrix(1.135551,0.000000,0.000000,1.135551,-3.259995,-3.266773)"
       y2="16.7231"
       x2="23.412"
       y1="11.5991"
       x1="18.229"
       gradientUnits="userSpaceOnUse"
       id="linearGradient5274"
       xlink:href="#aigrd3"
       inkscape:collect="always" /><radialGradient
       gradientTransform="matrix(1.135551,0.000000,0.000000,1.135551,-4.540325,-2.077433)"
       r="14.6944"
       fy="13.5444"
       fx="19.292"
       cy="13.5444"
       cx="19.292"
       gradientUnits="userSpaceOnUse"
       id="radialGradient5281"
       xlink:href="#aigrd2"
       inkscape:collect="always" /><radialGradient
       gradientTransform="matrix(0.66261721,0,0,0.66261721,-1.55709,20.914835)"
       r="13.2807"
       fy="20.9712"
       fx="28.7891"
       cy="20.9712"
       cx="28.7891"
       gradientUnits="userSpaceOnUse"
       id="radialGradient5284"
       xlink:href="#aigrd1"
       inkscape:collect="always" /><linearGradient
       gradientUnits="userSpaceOnUse"
       y2="49.895073"
       x2="43.140980"
       y1="5.9244628"
       x1="15.338736"
       gradientTransform="matrix(0.49339214,0,0,0.47079142,2.7464686,24.128022)"
       id="linearGradient6610"
       xlink:href="#linearGradient6604"
       inkscape:collect="always" /><linearGradient
       gradientUnits="userSpaceOnUse"
       y2="22.783224"
       x2="29.957399"
       y1="9.4436626"
       x1="18.570419"
       gradientTransform="matrix(0.5201631,0,0,0.49157226,2.1657986,23.729024)"
       id="linearGradient6623"
       xlink:href="#linearGradient6617"
       inkscape:collect="always" /><linearGradient
       gradientUnits="userSpaceOnUse"
       y2="35.017860"
       x2="38.250904"
       y1="22.886259"
       x1="38.506161"
       gradientTransform="matrix(0.42675047,0,0,0.59917437,2.1657986,23.981858)"
       id="linearGradient6631"
       xlink:href="#linearGradient6625"
       inkscape:collect="always" /><radialGradient
       gradientUnits="userSpaceOnUse"
       r="33.156136"
       fy="19.818913"
       fx="24.452202"
       cy="19.818913"
       cx="24.452202"
       gradientTransform="matrix(0.51804335,0,0,0.49358379,3.288209,22.859447)"
       id="radialGradient6663"
       xlink:href="#linearGradient6665"
       inkscape:collect="always" /><radialGradient
       r="33.156136"
       fy="19.818913"
       fx="24.452202"
       cy="19.818913"
       cx="24.452202"
       gradientTransform="matrix(0.51804335,0,0,0.49358379,3.6457693,22.948837)"
       gradientUnits="userSpaceOnUse"
       id="radialGradient6675"
       xlink:href="#linearGradient6665"
       inkscape:collect="always" /><radialGradient
       r="14.6944"
       fy="20.479359"
       fx="26.887432"
       cy="20.479359"
       cx="26.887432"
       gradientTransform="matrix(0.57420915,0,0,0.57420915,0.51733112,22.07713)"
       gradientUnits="userSpaceOnUse"
       id="radialGradient6678"
       xlink:href="#aigrd2"
       inkscape:collect="always" /><linearGradient
       gradientUnits="userSpaceOnUse"
       y2="27.403761"
       x2="36.499001"
       y1="35.458244"
       x1="37.502811"
       gradientTransform="matrix(0.42675047,0,0,0.59917437,2.8132175,23.127617)"
       id="linearGradient6690"
       xlink:href="#linearGradient6684"
       inkscape:collect="always" /></defs><sodipodi:namedview
     inkscape:current-layer="svg5105"
     inkscape:window-y="30"
     inkscape:window-x="203"
     inkscape:cy="20.392013"
     inkscape:cx="20.656822"
     inkscape:zoom="5.6568542"
     id="base"
     pagecolor="#ffffff"
     bordercolor="#666666"
     borderopacity="0.16470588"
     inkscape:pageopacity="0.0"
     inkscape:pageshadow="2"
     inkscape:window-width="1163"
     inkscape:window-height="819"
     inkscape:showpageshadow="false"
     showgrid="false"
     inkscape:window-maximized="0" /><path
     style="opacity:0.48044691;color:#000000;fill:url(#radialGradient6675);fill-opacity:1;fill-rule:nonzero;stroke:none;stroke-width:1;marker:none;visibility:visible;display:inline;overflow:visible"
     d="m 15.651619,32.889511 c 0,0 -2.985888,4.134306 -2.985888,6.029196 0,1.89489 3.445255,0.861314 4.823357,2.239416 1.378102,1.378102 -3.215572,4.938198 -3.215572,4.938198 l 4.593674,-1.26326 1.837469,1.952311 c 0,-2.354258 2.698783,-4.249147 1.320681,-5.68467 -1.435523,-1.435523 -5.512408,-1.26326 -5.742091,-3.158151 -0.229684,-1.89489 -0.57421,-4.995619 -0.57421,-4.995619 l -0.05742,-0.05742 z"
     id="path6671"
     inkscape:connector-curvature="0"
     inkscape:export-filename="/home/dooteo/Src/HTML5/unimail/admin/theme/img/cert.png"
     inkscape:export-xdpi="90"
     inkscape:export-ydpi="90" /><path
     style="opacity:0.48044691;fill:url(#radialGradient6663);fill-opacity:1;fill-rule:nonzero;stroke:none"
     d="m 21.480452,27.878169 c 0.668251,1.54601 1.842207,1.46735 1.871241,3.530818 0.01656,1.150775 0.926609,1.755036 0.926609,2.930594 0,1.175557 -2.030255,1.756416 -2.721759,2.447919 -0.691506,0.691506 0.05456,2.464831 -1.821423,2.985935 -1.858151,0.516154 -2.766021,-0.20745 -3.941579,-0.20745 -1.17556,0 -3.988599,2.266741 -5.025857,1.229483 C 9.7304262,39.758211 9.7082963,37.491469 8.8093398,36.592513 7.8412322,35.624405 6.3116369,34.271811 6.3116369,32.543049 c 0,-1.728763 0.9982878,-2.641389 2.4285526,-4.248596 1.4756715,-1.658232 1.5213105,-4.149031 3.2500735,-4.149031 1.728763,0 2.391385,0.474218 3.862761,0.437032 2.345448,-0.05928 2.63287,-1.174823 4.357864,-0.300112 1.520891,0.771216 0.746442,2.385576 1.269564,3.595827 z"
     id="path6639"
     sodipodi:nodetypes="csssssssssssss"
     inkscape:connector-curvature="0"
     inkscape:export-filename="/home/dooteo/Src/HTML5/unimail/admin/theme/img/cert.png"
     inkscape:export-xdpi="90"
     inkscape:export-ydpi="90" /><path
     id="path5112"
     d="m 14.757718,32.26378 c 0,0 -2.985888,4.134306 -2.985888,6.029196 0,1.894891 3.445255,0.861314 4.823357,2.239416 1.378102,1.378102 -3.215571,4.938199 -3.215571,4.938199 l 4.593673,-1.263261 1.83747,1.952312 c 0,-2.354258 2.698782,-4.249148 1.32068,-5.68467 -1.435522,-1.435524 -5.512407,-1.263261 -5.742091,-3.158151 -0.229684,-1.89489 -0.574209,-4.99562 -0.574209,-4.99562 l -0.05742,-0.05742 z"
     style="fill:url(#linearGradient6631);fill-opacity:1;fill-rule:nonzero;stroke:#1f254f;stroke-width:0.50566566;stroke-miterlimit:6.5999999;stroke-opacity:1"
     inkscape:connector-curvature="0"
     inkscape:export-filename="/home/dooteo/Src/HTML5/unimail/admin/theme/img/cert.png"
     inkscape:export-xdpi="90"
     inkscape:export-ydpi="90" /><path
     sodipodi:nodetypes="cscccsss"
     style="fill:none;stroke:url(#linearGradient6690);stroke-width:0.36464825;stroke-miterlimit:6.5999999;stroke-opacity:1"
     d="m 13.332688,39.107875 c 2.30179,0.226732 3.756597,0.624763 3.947541,2.017154 0.166927,1.217258 -2.14005,3.404626 -2.14005,3.404626 l 2.955054,-0.821578 1.436783,1.497251 c 0.335212,-1.876495 2.207134,-3.146253 1.35463,-4.300486 -1.069324,-1.447796 -4.533822,-1.134445 -4.699453,-2.500897 -0.165631,-1.366453 -4.214248,0.568679 -2.854505,0.70393 z"
     id="path6680"
     inkscape:connector-curvature="0"
     inkscape:export-filename="/home/dooteo/Src/HTML5/unimail/admin/theme/img/cert.png"
     inkscape:export-xdpi="90"
     inkscape:export-ydpi="90" /><path
     sodipodi:nodetypes="csssssssssssss"
     id="path5119"
     d="m 20.478892,27.80341 c 0.640336,1.481425 1.76525,1.406051 1.79307,3.383318 0.01586,1.102701 0.887901,1.681719 0.887901,2.808169 0,1.126448 -1.945441,1.683041 -2.608058,2.345658 -0.662618,0.662617 0.05227,2.361861 -1.745334,2.861197 -1.780526,0.494591 -2.65047,-0.198784 -3.776919,-0.198784 -1.126451,0 -3.821975,2.172048 -4.815902,1.178121 C 9.2197235,39.187163 9.1985175,37.015115 8.3371153,36.153713 7.4094503,35.226048 5.9437536,33.929958 5.9437536,32.273414 c 0,-1.656543 0.9565844,-2.531044 2.3271003,-4.071111 1.4140254,-1.588958 1.4577583,-3.975705 3.1143021,-3.975705 1.656543,0 2.291485,0.454408 3.701395,0.418777 2.247467,-0.0568 2.522881,-1.125747 4.175813,-0.287576 1.457357,0.738998 0.71526,2.285918 1.216528,3.445611 z"
     style="fill:url(#radialGradient5284);fill-rule:nonzero;stroke:#4c0901;stroke-width:0.50566566;stroke-linecap:round;stroke-linejoin:round;stroke-miterlimit:4;stroke-opacity:1"
     inkscape:connector-curvature="0"
     inkscape:export-filename="/home/dooteo/Src/HTML5/unimail/admin/theme/img/cert.png"
     inkscape:export-xdpi="90"
     inkscape:export-ydpi="90" /><path
     id="path5126"
     d="m 20.499809,32.010947 c 0,3.158151 -2.583941,5.742092 -5.742091,5.742092 -3.158151,0 -5.7420912,-2.583941 -5.7420912,-5.742092 0,-3.158149 2.5839402,-5.742091 5.7420912,-5.742091 3.15815,0 5.742091,2.583942 5.742091,5.742091 z"
     style="fill:url(#radialGradient6678);fill-rule:nonzero;stroke:none"
     inkscape:connector-curvature="0"
     inkscape:export-filename="/home/dooteo/Src/HTML5/unimail/admin/theme/img/cert.png"
     inkscape:export-xdpi="90"
     inkscape:export-ydpi="90" /><path
     style="fill:none;stroke:url(#linearGradient6610);stroke-width:0.50566566;stroke-linecap:round;stroke-linejoin:round;stroke-miterlimit:4;stroke-opacity:1"
     d="m 19.949706,28.199505 c 0.583165,1.34916 1.607643,1.280516 1.63298,3.081247 0.01445,1.004249 0.808627,1.531571 0.808627,2.557448 0,1.025877 -1.771747,1.532774 -2.375204,2.136231 -0.603458,0.603458 0.04761,2.150989 -1.589506,2.605742 -1.621556,0.450433 -2.413828,-0.181036 -3.439706,-0.181036 -1.025877,0 -3.480738,1.978122 -4.385925,1.072936 C 9.6957866,38.566887 9.6764743,36.588765 8.8919797,35.804271 8.0471393,34.95943 6.7123038,33.779059 6.7123038,32.270416 c 0,-1.508643 0.8711782,-2.305066 2.1193302,-3.707631 1.287778,-1.447092 1.327606,-3.620743 2.836249,-3.620743 1.508643,0 2.086895,0.413837 3.370925,0.381386 2.046806,-0.05173 2.297632,-1.025236 3.802985,-0.2619 1.32724,0.673019 0.651399,2.081825 1.107913,3.137977 z"
     id="path6600"
     sodipodi:nodetypes="csssssssssssss"
     inkscape:connector-curvature="0"
     inkscape:export-filename="/home/dooteo/Src/HTML5/unimail/admin/theme/img/cert.png"
     inkscape:export-xdpi="90"
     inkscape:export-ydpi="90" /><path
     id="path6612"
     d="m 14.778911,26.693803 c -2.967154,0 -5.3834499,2.397984 -5.3834499,5.365138 0,1.856294 1.0030919,3.428731 2.4353699,4.394652 3.661258,-1.97056 3.010634,-5.463813 7.892064,-6.445491 -0.808563,-1.946359 -2.706114,-3.314299 -4.943984,-3.314299 z"
     style="color:#000000;fill:url(#linearGradient6623);fill-opacity:1;fill-rule:nonzero;stroke:none;stroke-width:1;marker:none;visibility:visible;display:inline;overflow:visible"
     inkscape:connector-curvature="0"
     inkscape:export-filename="/home/dooteo/Src/HTML5/unimail/admin/theme/img/cert.png"
     inkscape:export-xdpi="90"
     inkscape:export-ydpi="90" /></svg>